<?xml version="1.0" encoding="utf-8"?>
<!-- Generator: flash2svg, http://dissentgraphics.com/tools/flash2svg -->
<svg xmlns:xlink="http://www.w3.org/1999/xlink" id="logo-me" image-rendering="optimizeSpeed" baseProfile="basic" version="1.1" style="background-color:#ffffff" x="0px" y="0px" width="179px" height="186px" viewBox="0 0 179 186" enable-background="new 0 0 179 186" xmlns="http://www.w3.org/2000/svg">
  <defs/>
  <g id="Layer.__203">
    <g id="shape" transform="matrix(1 0 0 1 0 0)">
      <path id="path" fill="#806652" fill-opacity="1" d="M173.7,92.85 C175.7,90.65 176.75,89.3 176.9,88.75 177,88.65 177.1,88.55 177.1,88.35 177.1,88.35 172.75,84.95 171.35,83.6 169.6,81.8 168.2,80 166.9,78.45 164.05,75.15 162.3,71.6 160.45,68.15 158.75,64.9 157.6,61.35 157.1,57.95 156.8,56.2 156.35,54.45 155.9,52.8 155.65,51.8 155.45,51.05 155.35,50.55 155.25,48.75 154.5,46.35 153.1,43.35 151.7,40.5 150.3,38.15 148.8,36.35 146.9,34 146.4,31.5 142.8,29 140.8,27.65 138.6,26.8 136.2,25.55 135.55,25.1 134.35,24.7 132.6,24.45 131.85,24.35 131.2,24.3 130.75,24.35 130.5,23.25 129.15,20.95 126.75,17.35 124.1,13.55 122.75,11.6 122.7,11.6 119.4,7.85 113.65,1.3 102.05,0.05 L99.3,0.05 C99.2,0.05 99.1,0 99,0 L95.2,0 C89.7,0.85 87.8,0.9 84,1.75 83.2,1.9 81.85,2.4 79.95,3.25 78.6,3.85 77.7,4.3 77.15,4.75 76.35,5 75.25,5.45 73.9,6.1 72.55,6.7 70.35,7.85 67.3,9.55 63.2,11.8 59.8,14.3 56.75,16.55 54.55,18.2 36.95,28.65 31.95,28.65 29.95,28.65 28.65,28.2 28.15,28.2 27.85,28.2 27.6,28.25 27.5,28.4 27.5,28.4 27.45,28.4 27.4,28.35 27.35,28.8 27.25,29.2 27.25,29.5 27.25,30.15 27.8,31.3 28.85,32.9 29.65,34.1 30.45,34.9 31.2,35.35 30.7,35.8 30.05,36.35 29.25,37.05 27.65,38.2 26.25,38.85 24.15,39.9 22.2,40.85 15.25,44.45 9.9,44.45 9.15,44.35 8.7,44.3 8.45,44.3 8.15,44.3 7.95,44.4 7.9,44.6 7.85,44.75 7.8,44.95 7.8,45.25 7.8,46.4 10.8,50.6 11.7,51.35 13.15,52.6 14.7,53.8 16.35,54.9 18.35,56.25 19.8,57.05 20.7,57.2 20.25,57.45 19.55,57.75 18.5,58.2 17.5,58.6 16.25,59.05 14.65,59.45 14.25,59.6 13.95,59.7 13.65,59.75 13.15,59.2 12.85,59.3 12.75,60.1 L12.75,60.2 C12.75,60.25 12.75,60.35 12.75,60.45 12.75,60.8 13.55,61.75 15.1,63.15 16.65,64.55 17.9,65.35 18.75,65.45 L18.9,65.65 C18.95,65.75 19,65.8 19.05,65.85 18.6,66.7 18,67.8 17.4,69.25 16.6,70.95 15.55,72.95 14.4,74.65 11.95,78.35 9.45,81.2 6.75,83.2 5.8,83.95 5,84.45 4.3,84.85 3.95,84.75 3.7,84.85 3.65,85.15 3.6,85.2 3.55,85.2 3.5,85.2 3.5,85.35 3.5,85.45 3.55,85.5 3.55,85.5 3.6,85.55 3.65,85.6 3.75,86 4.45,86.65 5.75,87.55 7.3,88.65 8.9,89.2 10.45,89.35 9.75,90.2 8.8,91.4 7.65,93 4.6,96.55 0,99.25 0,99.4 0,99.55 0.05,99.65 0.15,99.75 0.25,99.85 0.35,99.9 0.45,99.95 0.45,99.95 0.45,100 0.45,100.05 0.45,100.15 4.2,103 5.3,103.55 6.35,104.15 9.2,105.65 12.95,105.65 13.05,105.65 13.1,105.65 13.15,105.65 12.9,106.1 12.6,106.6 12.3,107.1 11.6,108.3 10.75,109.65 10.05,110.9 7.95,114.45 4.25,118.05 4.25,118.45 L4.25,118.55 C4.2,118.55 4.2,118.65 4.2,118.7 4.2,119.1 4.1,119.95 13.8,119.95 14.75,119.95 15.8,119.85 16.95,119.55 17.25,119.5 17.5,119.4 17.7,119.3 17.6,119.75 17.5,120 17.45,120.15 17.05,121.2 16.5,122.55 15.8,123.45 15.25,124.2 14.05,125.5 12.3,127.45 11.4,128.45 10.75,129.15 10.45,129.55 10.3,129.7 10.25,129.8 10.2,129.85 10.15,129.9 10.15,129.95 10.15,130 10.15,130.1 10.15,130.15 10.15,130.2 10.15,130.25 10.15,130.3 10.1,130.35 10.1,130.5 10.25,130.6 10.55,130.65 11.35,130.9 13.5,131 16.85,131 18.5,131 20.2,130.75 21.9,130.25 22.25,130.15 22.55,130.05 22.8,129.9 22.6,130.55 22.25,131.05 21.9,131.5 19.55,133.85 16.65,134.5 16.65,135.1 16.65,135.2 16.7,135.3 16.85,135.35 16.9,135.85 17.5,136.25 18.7,136.7 19.75,137.05 20.8,137.3 21.9,137.4 L23.75,137.4 C24.8,137.3 25.9,137.15 26.95,137 27.5,136.85 27.9,136.8 28.25,136.7 L28.75,138.25 C28.7,138.45 28.7,138.6 28.7,138.85 28.7,139.3 31.4,147.1 32.65,151 33,152.15 33.7,154.65 34.7,158.4 34.9,159.15 35.1,159.8 35.3,160.4 L35.4,161.05 C35.55,161.55 35.65,161.95 35.8,162.3 35.85,164.25 38.6,166.8 43.9,170.05 47.5,172.2 51.8,174.4 56.85,176.65 60.6,178.35 65.6,180.25 71.75,182.35 77.75,184.4 81.55,185.45 83.05,185.55 83.7,185.8 84.85,185.95 86.5,185.95 86.85,185.95 87.15,185.95 87.45,185.9 88.05,185.9 88.6,185.85 89.1,185.85 89.15,185.85 90,186 90.4,186 91.2,186 91.95,185.95 92.6,185.75 L92.65,185.75 C93.25,185.75 94.2,185.55 95.6,185.15 98.5,184.5 102.7,183.1 108.2,180.9 110.1,180.15 111.95,179.35 113.75,178.6 117.75,177.1 120.25,176.05 121.3,175.4 L121.35,175.4 C124.05,174.35 127.05,172.85 130.45,170.95 131.2,170.5 131.85,170.1 132.5,169.7 133.25,169.3 134,168.9 134.7,168.5 140.35,165.4 143.35,162.75 143.75,160.7 144.45,159.35 145.3,157.05 146.25,153.7 147.75,148.75 148.45,145.9 148.45,145.25 L148.45,145.2 C149.2,143.25 150.3,140.2 151.65,136.05 151.65,136 151.65,135.95 151.65,135.9 152.2,135.95 153.1,136 154.25,136 159.05,136 163.2,134.1 163.2,133.15 163.2,133.05 163.15,132.95 163.15,132.85 163.15,132.15 160.95,130.65 160.45,129.95 160.3,129.6 160.05,129.3 159.8,129.05 160.2,129.05 160.7,129.1 161.25,129.1 164,129.1 167.85,126.3 167.85,125.7 167.85,125.05 167.6,124.8 167.1,124.9 166.75,124.55 166.25,123.95 165.5,123.2 164.7,122.35 164.2,121.7 164,121.3 163.6,120.5 163.4,119.85 163.3,119.4 163.35,119.4 163.45,119.4 163.55,119.4 165.1,119.4 166.7,118.9 168.35,118 169.6,117.3 170.35,116.75 170.55,116.25 170.7,116.25 170.75,116.2 170.85,116.05 170.95,115.95 171,115.8 171,115.6 171,115.35 169.25,114.45 168.05,112.35 167.75,111.75 167.6,111.3 167.45,111 168.8,110.9 171,109.9 174,107.95 176.4,106.35 177.9,105.2 178.35,104.55 178.4,104.5 178.45,104.45 178.55,104.45 178.85,104.25 179,103.95 179,103.6 179,103.55 179,103.5 179,103.45 179,103.35 179,103.3 179,103.15 179,103.1 174.65,101.1 172.8,99.65 171.8,98.8 171.05,98.2 170.45,97.75 169.85,97.3 169.25,96.9 168.7,96.6 170.05,96.25 171.7,95 173.7,92.85z M121.8,41.8 Q122.55,42.2 123.2,42.7 C123.65,43 124.1,43.35 124.5,43.75 125.2,44.35 125.75,45.05 126.25,45.8 126.55,46.25 126.9,46.95 127.35,47.85 127.85,48.9 128.5,50.35 129.25,52.2 129.3,52.35 129.35,52.5 129.45,52.65 130.1,53.95 130.7,55.4 131.2,57 131.6,58.45 132,60.25 132.35,62.25 132.85,65.75 133.75,69.55 134.85,72.9 135.45,74.6 136.55,76.7 137.45,78.2 138.15,79.35 138.85,80.4 139.7,81.4 140.25,82.2 140.8,82.75 141.15,83.1 141.15,83.3 141.1,83.5 141.1,83.7 141.15,84 141.15,84.45 141.15,85.05 L141.15,87.8 C140.9,93.3 140.5,93.9 140.5,98.4 140.5,105.6 139.6,109.95 139.6,111.15 L139.65,112.55 C139.6,112.95 139.55,113.3 139.45,113.6 139.1,114.3 138.55,115.35 137.9,116.85 135,119.95 131.3,125.15 130.45,126 127.2,129.3 116.75,138.05 116.75,138.85 L116.8,139 C116.55,139.25 116.25,139.6 115.85,140 115.1,140.85 114.65,142.05 114.45,142.8 113.95,144.75 113.05,146.7 112.45,148.5 112.3,149.05 111.55,151.2 110.2,155.1 109.3,157.55 108.8,159.1 108.7,159.6 108,160.8 107.3,161.9 106.7,162.35 103.45,165.05 96.45,166 91.2,166.7 L87.6,166.7 C83.5,166.4 80.85,166.2 79.6,166.05 76.65,165.6 74.45,165.05 73.1,164.35 72.05,163.9 70.45,162.75 68.4,160.85 68.25,160.75 68.15,160.65 68.05,160.55 67.7,159.6 67.15,158.1 66.35,156.1 65.1,152.95 64.1,150.45 63.35,148.8 62.45,146.85 61.7,144.45 60.8,142.4 60.35,141.3 59.8,140.35 59.2,139.2 58.95,138.5 58.65,137.95 58.25,137.6 56.3,135 48.7,128.35 47.2,126.55 45.4,124.25 43.6,121.9 42,119.85 41.85,119.4 41.6,118.85 41.3,118.15 40.5,116.3 39.95,114.9 39.65,113.95 39.35,113.15 39.15,112.4 39.1,111.6 L39.1,111.5 C39.05,111.4 39.05,111.3 39.05,111.25 39.05,110.95 39.05,110.75 39.05,110.55 39,110.2 38.95,109.9 38.85,109.7 38.8,108.95 38.7,108.15 38.65,107.4 38.35,104.55 38.2,101.65 38.2,98.75 38.2,94.25 37.8,93.65 37.5,88.15 L37.5,85.4 C37.55,84.8 37.55,84.35 37.55,84.05 37.6,83.7 37.55,83.35 37.4,83.1 38.3,82.4 39.55,80.7 41.25,78 43.45,74.5 44.75,71.95 45.2,70.25 45.85,68 46.5,65.45 47.25,62.6 48,59.7 48.5,57.85 48.6,57.15 49,57.05 49.55,56.85 50.3,56.6 L51.15,56.3 C51.6,56.15 52.15,55.95 52.75,55.75 L53.45,55.45 C53.8,55.3 54.2,55.15 54.6,55 58.2,53.65 60.85,52.7 62.65,52.15 63.05,52.05 63.45,51.95 63.9,51.8 64.15,51.75 64.45,51.65 64.75,51.55 68.4,50.4 72.75,48.6 77.7,46.15 80.05,45.05 82.85,43.65 85,42.35 87.15,41 90.65,39.85 92.65,38.55 92.8,38.45 92.95,38.35 93.1,38.25 93.4,38.2 93.95,37.9 94.65,37.45 94.85,37.4 95.15,37.35 95.45,37.35 L96.4,37.35 C96.6,37.4 96.95,37.4 97,37.45 L98.55,37.45 98.85,37.4 100.25,37.4 100.3,37.45 101.65,37.45 102.05,37.5 103.2,37.5 C106.5,37.85 107.75,38.2 109.5,38.5 109.7,38.5 110.6,38.65 112.15,38.85 113.2,39.1 113.9,39.3 114.2,39.5 114.7,39.6 115.4,39.85 116.3,40.1 117.05,40.25 117.75,40.45 118.45,40.65 119.15,40.85 119.65,41.05 119.95,41.2 L120,41.2 C120.1,41.2 120.2,41.25 120.3,41.25 120.7,41.35 121.15,41.5 121.65,41.75 121.7,41.75 121.75,41.8 121.8,41.8zM80.05,126.75 C79.95,126.85 79.2,127.6 77.9,129.05 77.45,129.5 76.7,130.05 76,130.5 75.05,131.05 74.05,131.3 73.35,131.7 69.5,133.7 64.7,134 64.7,136.5 64.7,136.95 64.75,137.4 64.85,137.8 65,138.2 65.15,138.5 65.35,138.7 L65.35,138.75 C65.35,138.95 65.7,139.35 67.8,139.3 L69.2,139.3 C74.5,139 74.95,138.1 77.5,137.25 78.3,137 80.05,136.65 82.95,136.3 84.45,136.1 85.45,135.95 86.05,135.8 86.05,135.8 86.1,135.8 86.15,135.8 87.55,135.8 87.35,133.3 87.5,132.05 L87.5,130.25 C87.6,129.6 87.7,128.8 87.7,128.1 87.7,127.75 87.65,127.55 87.65,127.4 L87.65,127.35 C87.65,127.1 87.6,126.9 87.5,126.75 87.5,126.7 87.45,126.35 87.15,126.3 L85.7,126.3 C85.25,126.35 84.55,126.35 84.4,126.3 L83.05,126.3 82.9,126.35 81.65,126.35 C81.1,126.35 80.75,126.35 80.55,126.4 80.5,126.45 80.45,126.45 80.45,126.5 80.35,126.5 80.2,126.6 80.05,126.75zM80,144.2 C80,144.25 80.05,144.3 80.05,144.35 80.05,144.4 80.05,144.45 80.05,144.45 80.05,144.6 80.2,144.9 80.45,145.4 80.6,145.7 80.75,146.05 81,146.45 81.45,147.25 81.85,147.85 82.2,148.2 82.7,148.8 83.4,149.5 84.2,150.05 L84.25,150.1 C85.5,151.1 86.55,151.6 87.35,151.65 L89.5,151.65 C92.6,151.1 94.45,149.8 95.3,148.45 95.35,148.3 97.3,145.15 97.3,144.55 97.3,144.5 97.3,144.45 97.25,144.4 97.3,144.35 97.35,144.25 97.35,144.2 97.35,143.45 95,144.2 92.75,144.5 L91.35,144.55 C91.05,144.55 90.55,144.6 90.35,144.7 L88.75,144.7 88.55,144.8 84.9,144.75 C84.35,144.7 83.9,144.65 83.5,144.55 L83.4,144.55 C82.6,144.35 81.95,144.2 81.45,144.15 L80.4,143.9 C80.1,143.9 80,144.05 80,144.2zM99.15,129.05 C97.85,127.6 97.1,126.85 97,126.75 96.85,126.6 96.7,126.5 96.6,126.5 96.6,126.45 96.55,126.45 96.5,126.4 96.3,126.35 95.95,126.35 95.4,126.35 L94.15,126.35 94,126.3 92.65,126.3 C92.5,126.35 91.8,126.35 91.35,126.3 L89.9,126.3 C89.6,126.35 89.55,126.7 89.55,126.75 89.45,126.9 89.4,127.1 89.4,127.35 L89.4,127.4 C89.4,127.55 89.35,127.75 89.35,128.1 89.35,128.8 89.45,129.6 89.55,130.25 L89.55,132.05 C89.7,133.3 89.5,135.8 90.9,135.8 90.95,135.8 91,135.8 91,135.8 91.6,135.95 92.6,136.1 94.1,136.3 96.95,136.65 98.75,137 99.55,137.25 102.1,138.1 102.55,139 107.85,139.3 L109.25,139.3 C111.35,139.35 111.7,138.95 111.7,138.75 L111.7,138.7 C111.9,138.5 112.05,138.2 112.2,137.8 112.3,137.4 112.35,136.95 112.35,136.5 112.35,134 107.55,133.7 103.7,131.7 102.95,131.3 102,131.05 101.05,130.5 100.3,130.05 99.6,129.5 99.15,129.05z"/>
      <path id="path10" fill="#5F4B3D" fill-opacity="1" d="M101.2,33.1 C100.25,33.55 99.3,34.15 98.35,34.8 L95,37.2 C94.9,37.25 94.75,37.35 94.65,37.45 94.85,37.4 95.15,37.35 95.45,37.35 L96.4,37.35 C96.6,37.4 96.95,37.4 97,37.45 L98.55,37.45 98.85,37.4 100.25,37.4 100.3,37.45 101.65,37.45 102.05,37.5 103.2,37.5 C106.5,37.85 107.75,38.2 109.5,38.5 109.7,38.5 110.6,38.65 112.15,38.85 113.2,39.1 113.9,39.3 114.2,39.5 114.7,39.6 115.4,39.85 116.3,40.1 117.05,40.25 117.75,40.45 118.45,40.65 119.15,40.85 119.65,41.05 119.95,41.2 L120,41.2 C119.85,41 119.55,40.5 119.2,39.8 118.55,38.45 117.8,37.3 117.1,36.35 114.55,32.95 111.5,31.3 107.9,31.3 106.15,31.3 104.3,31.75 102.3,32.6 102.1,32.7 101.9,32.8 101.7,32.9 101.5,32.95 101.35,33.05 101.2,33.1z "/>
    </g>
  </g>
</svg>