<svg xmlns="http://www.w3.org/2000/svg" xmlns:xlink="http://www.w3.org/1999/xlink"
  viewBox="155 220 300 300" width="200" height="100" preserveAspectRatio="xMidYMid meet"
  style="width: 100%; height: 100%; transform: translate3d(0px, 0px, 0px); content-visibility: visible;">
  <defs>
    <clipPath id="__lottie_element_148">
      <rect width="596" height="842" x="0" y="0"></rect>
    </clipPath>
    <clipPath id="__lottie_element_156">
      <path fill="#ffffff" clip-rule="nonzero"
        d=" M1.0119999647140503,-32.65999984741211 C1.0119999647140503,-32.65999984741211 1.0119999647140503,0.46000000834465027 1.0119999647140503,0.46000000834465027 C1.0119999647140503,0.46000000834465027 158.92999267578125,0.46000000834465027 158.92999267578125,0.46000000834465027 C158.92999267578125,0.46000000834465027 158.92999267578125,-32.65999984741211 158.92999267578125,-32.65999984741211 C158.92999267578125,-32.65999984741211 1.0119999647140503,-32.65999984741211 1.0119999647140503,-32.65999984741211"
        fill-opacity="1"></path>
    </clipPath>
  </defs>
  <g clip-path="url(#__lottie_element_148)">
    <g clip-path="url(#__lottie_element_156)"
      transform="matrix(2.9700000286102295,0,0,3.5936999320983887,65,510.75)" opacity="1"
      fill="rgb(235,235,235)" font-size="46" font-family="Bebas Neue" font-style="normal"
      font-weight="400" aria-label="SCHINWALD" style="display: block;">
      <g stroke-linecap="butt" stroke-linejoin="round" stroke-miterlimit="4"
        transform="matrix(1,0,0,1,0,0)" opacity="1" style="display: inherit;">
        <g>
          <g transform="matrix(1,0,0,1,0,0)" opacity="1" style="display: block;">
            <path
              d=" M8.46,0.46 C10.95,0.46 12.84,-0.25 14.15,-1.66 C15.45,-3.07 16.1,-5.09 16.1,-7.73 C16.1,-9.75 15.7,-11.52 14.9,-13.02 C14.11,-14.52 12.65,-16.19 10.53,-18.03 C8.88,-19.47 7.74,-20.7 7.11,-21.71 C6.48,-22.72 6.16,-23.81 6.16,-24.98 C6.16,-27.03 7.01,-28.06 8.69,-28.06 C9.52,-28.06 10.15,-27.81 10.58,-27.3 C11.01,-26.8 11.22,-25.99 11.22,-24.89 C11.22,-24.89 11.22,-23.23 11.22,-23.23 C11.22,-23.23 16.01,-23.23 16.01,-23.23 C16.01,-23.23 16.01,-24.56 16.01,-24.56 C16.01,-27.17 15.39,-29.17 14.15,-30.57 C12.9,-31.96 11.07,-32.66 8.65,-32.66 C6.19,-32.66 4.32,-31.96 3.04,-30.57 C1.75,-29.17 1.1,-27.2 1.1,-24.66 C1.1,-22.79 1.52,-21.11 2.35,-19.62 C3.17,-18.13 4.63,-16.47 6.72,-14.63 C8.37,-13.19 9.51,-11.95 10.12,-10.93 C10.73,-9.9 11.04,-8.71 11.04,-7.36 C11.04,-6.23 10.82,-5.41 10.37,-4.9 C9.93,-4.39 9.28,-4.14 8.42,-4.14 C6.67,-4.14 5.8,-5.18 5.8,-7.27 C5.8,-7.27 5.8,-9.48 5.8,-9.48 C5.8,-9.48 1.01,-9.48 1.01,-9.48 C1.01,-9.48 1.01,-7.64 1.01,-7.64 C1.01,-5.03 1.64,-3.03 2.9,-1.63 C4.16,-0.24 6.01,0.46 8.46,0.46z"></path>
            <g opacity="1" transform="matrix(0.46000000834465027,0,0,0.46000000834465027,0,0)"></g>
          </g>
        </g>
      </g>
      <g stroke-linecap="butt" stroke-linejoin="round" stroke-miterlimit="4"
        transform="matrix(1,0,0,1,17.112001419067383,0)" opacity="1" style="display: inherit;">
        <g>
          <g transform="matrix(1,0,0,1,0,0)" opacity="1" style="display: block;">
            <path
              d=" M9.02,0.46 C11.44,0.46 13.29,-0.23 14.56,-1.61 C15.83,-2.99 16.47,-4.94 16.47,-7.45 C16.47,-7.45 16.47,-12.01 16.47,-12.01 C16.47,-12.01 11.68,-12.01 11.68,-12.01 C11.68,-12.01 11.68,-7.08 11.68,-7.08 C11.68,-5.12 10.84,-4.14 9.15,-4.14 C7.47,-4.14 6.62,-5.12 6.62,-7.08 C6.62,-7.08 6.62,-25.07 6.62,-25.07 C6.62,-27.06 7.47,-28.06 9.15,-28.06 C10.84,-28.06 11.68,-27.06 11.68,-25.07 C11.68,-25.07 11.68,-21.34 11.68,-21.34 C11.68,-21.34 16.47,-21.34 16.47,-21.34 C16.47,-21.34 16.47,-24.75 16.47,-24.75 C16.47,-27.26 15.83,-29.21 14.56,-30.59 C13.29,-31.97 11.44,-32.66 9.02,-32.66 C6.59,-32.66 4.75,-31.97 3.47,-30.59 C2.2,-29.21 1.56,-27.26 1.56,-24.75 C1.56,-24.75 1.56,-7.45 1.56,-7.45 C1.56,-4.94 2.2,-2.99 3.47,-1.61 C4.75,-0.23 6.59,0.46 9.02,0.46z"></path>
            <g opacity="1" transform="matrix(0.46000000834465027,0,0,0.46000000834465027,0,0)"></g>
          </g>
        </g>
      </g>
      <g stroke-linecap="butt" stroke-linejoin="round" stroke-miterlimit="4"
        transform="matrix(1,0,0,1,34.82200241088867,0)" opacity="1" style="display: inherit;">
        <g>
          <g transform="matrix(1,0,0,1,0,0)" opacity="1" style="display: block;">
            <path
              d=" M1.89,0 C1.89,0 6.95,0 6.95,0 C6.95,0 6.95,-14.49 6.95,-14.49 C6.95,-14.49 12.37,-14.49 12.37,-14.49 C12.37,-14.49 12.37,0 12.37,0 C12.37,0 17.43,0 17.43,0 C17.43,0 17.43,-32.2 17.43,-32.2 C17.43,-32.2 12.37,-32.2 12.37,-32.2 C12.37,-32.2 12.37,-19.09 12.37,-19.09 C12.37,-19.09 6.95,-19.09 6.95,-19.09 C6.95,-19.09 6.95,-32.2 6.95,-32.2 C6.95,-32.2 1.89,-32.2 1.89,-32.2 C1.89,-32.2 1.89,0 1.89,0z"></path>
            <g opacity="1" transform="matrix(0.46000000834465027,0,0,0.46000000834465027,0,0)"></g>
          </g>
        </g>
      </g>
      <g stroke-linecap="butt" stroke-linejoin="round" stroke-miterlimit="4"
        transform="matrix(1,0,0,1,54.14200210571289,0)" opacity="1" style="display: inherit;">
        <g>
          <g transform="matrix(1,0,0,1,0,0)" opacity="1" style="display: block;">
            <path
              d=" M1.89,0 C1.89,0 6.95,0 6.95,0 C6.95,0 6.95,-32.2 6.95,-32.2 C6.95,-32.2 1.89,-32.2 1.89,-32.2 C1.89,-32.2 1.89,0 1.89,0z"></path>
            <g opacity="1" transform="matrix(0.46000000834465027,0,0,0.46000000834465027,0,0)"></g>
          </g>
        </g>
      </g>
      <g stroke-linecap="butt" stroke-linejoin="round" stroke-miterlimit="4"
        transform="matrix(1,0,0,1,62.9739990234375,0)" opacity="1" style="display: inherit;">
        <g>
          <g transform="matrix(1,0,0,1,0,0)" opacity="1" style="display: block;">
            <path
              d=" M1.89,0 C1.89,0 6.39,0 6.39,0 C6.39,0 6.39,-23.51 6.39,-23.51 C6.39,-23.51 6.49,-23.51 6.49,-23.51 C6.49,-23.51 12.56,0 12.56,0 C12.56,0 17.76,0 17.76,0 C17.76,0 17.76,-32.2 17.76,-32.2 C17.76,-32.2 13.25,-32.2 13.25,-32.2 C13.25,-32.2 13.25,-12.93 13.25,-12.93 C13.25,-12.93 13.16,-12.93 13.16,-12.93 C13.16,-12.93 8.23,-32.2 8.23,-32.2 C8.23,-32.2 1.89,-32.2 1.89,-32.2 C1.89,-32.2 1.89,0 1.89,0z"></path>
            <g opacity="1" transform="matrix(0.46000000834465027,0,0,0.46000000834465027,0,0)"></g>
          </g>
        </g>
      </g>
      <g stroke-linecap="butt" stroke-linejoin="round" stroke-miterlimit="4"
        transform="matrix(1,0,0,1,82.61600494384766,0)" opacity="1" style="display: inherit;">
        <g>
          <g transform="matrix(1,0,0,1,0,0)" opacity="1" style="display: block;">
            <path
              d=" M3.96,0 C3.96,0 10.67,0 10.67,0 C10.67,0 12.97,-21.71 12.97,-21.71 C12.97,-21.71 13.06,-21.71 13.06,-21.71 C13.06,-21.71 15.36,0 15.36,0 C15.36,0 21.67,0 21.67,0 C21.67,0 24.93,-32.2 24.93,-32.2 C24.93,-32.2 20.56,-32.2 20.56,-32.2 C20.56,-32.2 18.31,-7.45 18.31,-7.45 C18.31,-7.45 18.22,-7.45 18.22,-7.45 C18.22,-7.45 15.82,-32.2 15.82,-32.2 C15.82,-32.2 10.3,-32.2 10.3,-32.2 C10.3,-32.2 7.91,-7.45 7.91,-7.45 C7.91,-7.45 7.82,-7.45 7.82,-7.45 C7.82,-7.45 5.57,-32.2 5.57,-32.2 C5.57,-32.2 0.69,-32.2 0.69,-32.2 C0.69,-32.2 3.96,0 3.96,0z"></path>
            <g opacity="1" transform="matrix(0.46000000834465027,0,0,0.46000000834465027,0,0)"></g>
          </g>
        </g>
      </g>
      <g stroke-linecap="butt" stroke-linejoin="round" stroke-miterlimit="4"
        transform="matrix(1,0,0,1,108.4679946899414,0)" opacity="1" style="display: inherit;">
        <g>
          <g transform="matrix(1,0,0,1,0,0)" opacity="1" style="display: block;">
            <path
              d=" M6.76,-10.67 C6.76,-10.67 8.97,-26.59 8.97,-26.59 C8.97,-26.59 9.06,-26.59 9.06,-26.59 C9.06,-26.59 11.32,-10.67 11.32,-10.67 C11.32,-10.67 6.76,-10.67 6.76,-10.67z M0.55,0 C0.55,0 5.24,0 5.24,0 C5.24,0 6.16,-6.3 6.16,-6.3 C6.16,-6.3 11.91,-6.3 11.91,-6.3 C11.91,-6.3 11.91,-6.39 11.91,-6.39 C11.91,-6.39 12.83,0 12.83,0 C12.83,0 17.89,0 17.89,0 C17.89,0 12.65,-32.2 12.65,-32.2 C12.65,-32.2 5.8,-32.2 5.8,-32.2 C5.8,-32.2 0.55,0 0.55,0z"></path>
            <g opacity="1" transform="matrix(0.46000000834465027,0,0,0.46000000834465027,0,0)"></g>
          </g>
        </g>
      </g>
      <g stroke-linecap="butt" stroke-linejoin="round" stroke-miterlimit="4"
        transform="matrix(1,0,0,1,127.14400482177734,0)" opacity="1" style="display: inherit;">
        <g>
          <g transform="matrix(1,0,0,1,0,0)" opacity="1" style="display: block;">
            <path
              d=" M1.89,0 C1.89,0 15.27,0 15.27,0 C15.27,0 15.27,-4.6 15.27,-4.6 C15.27,-4.6 6.95,-4.6 6.95,-4.6 C6.95,-4.6 6.95,-32.2 6.95,-32.2 C6.95,-32.2 1.89,-32.2 1.89,-32.2 C1.89,-32.2 1.89,0 1.89,0z"></path>
            <g opacity="1" transform="matrix(0.46000000834465027,0,0,0.46000000834465027,0,0)"></g>
          </g>
        </g>
      </g>
      <g stroke-linecap="butt" stroke-linejoin="round" stroke-miterlimit="4"
        transform="matrix(1,0,0,1,142.96800231933594,0)" opacity="1" style="display: inherit;">
        <g>
          <g transform="matrix(1,0,0,1,0,0)" opacity="1" style="display: block;">
            <path
              d=" M6.95,-4.6 C6.95,-4.6 6.95,-27.6 6.95,-27.6 C6.95,-27.6 9.52,-27.6 9.52,-27.6 C10.35,-27.6 10.99,-27.35 11.43,-26.86 C11.88,-26.37 12.1,-25.58 12.1,-24.47 C12.1,-24.47 12.1,-7.73 12.1,-7.73 C12.1,-6.62 11.88,-5.83 11.43,-5.34 C10.99,-4.85 10.35,-4.6 9.52,-4.6 C9.52,-4.6 6.95,-4.6 6.95,-4.6z M1.89,0 C1.89,0 9.61,0 9.61,0 C12.13,0 14.01,-0.67 15.27,-2.02 C16.53,-3.37 17.16,-5.35 17.16,-7.96 C17.16,-7.96 17.16,-24.24 17.16,-24.24 C17.16,-26.85 16.53,-28.83 15.27,-30.18 C14.01,-31.53 12.13,-32.2 9.61,-32.2 C9.61,-32.2 1.89,-32.2 1.89,-32.2 C1.89,-32.2 1.89,0 1.89,0z"></path>
            <g opacity="1" transform="matrix(0.46000000834465027,0,0,0.46000000834465027,0,0)"></g>
          </g>
        </g>
      </g>
    </g>
    <g transform="matrix(0.6740800142288208,0,0,0.4891600012779236,290.75,414.5)" opacity="1"
      style="display: block;">
      <g opacity="1" transform="matrix(1,0,0,1,0,0)">
        <path stroke-linecap="butt" stroke-linejoin="miter" fill-opacity="0" stroke-miterlimit="4"
          stroke="rgb(255,187,43)" stroke-opacity="1" stroke-width="4"
          d=" M-309.385986328125,-58.91999816894531 C-309.385986328125,-58.91999816894531 -105.19400024414062,-362.37298583984375 -105.19400024414062,-362.37298583984375 C-105.19400024414062,-362.37298583984375 -162.81399536132812,-196.25399780273438 -183.93699645996094,-131.08099365234375 C-213.6230010986328,-39.492000579833984 -282.7359924316406,176.60000610351562 -282.7359924316406,176.60000610351562 C-282.7359924316406,176.60000610351562 -178.23899841308594,-102.24400329589844 -227.8260040283203,-110.40699768066406 C-277.4129943847656,-118.56999969482422 -419.010009765625,132.83599853515625 -397.322998046875,128.17599487304688 C-339.53399658203125,115.75900268554688 -198.91600036621094,-81.5780029296875 -175.23699951171875,-97.81099700927734 C-165.17799377441406,-104.70700073242188 -161.97900390625,-101.89600372314453 -160.47500610351562,-101.62699890136719 C-167.30999755859375,-104.77100372314453 -176.86000061035156,-96.27400207519531 -180.10400390625,-93.85399627685547 C-186.8699951171875,-88.80599975585938 -194.98699951171875,-61.96799850463867 -185.38900756835938,-62.08599853515625 C-169.11099243164062,-62.28499984741211 -160.5330047607422,-100.96399688720703 -160.5330047607422,-100.96399688720703 C-160.5330047607422,-100.96399688720703 -168.06900024414062,-62.176998138427734 -164.35800170898438,-62.356998443603516 C-160.64700317382812,-62.5369987487793 -145.01300048828125,-101.43900299072266 -139.0780029296875,-101.44400024414062 C-133.14300537109375,-101.4489974975586 -146.6320037841797,-62.78099822998047 -140.16600036621094,-62.694000244140625 C-133.6999969482422,-62.606998443603516 -122.4489974975586,-100.447998046875 -116.947998046875,-100.56500244140625 C-111.4469985961914,-100.68199920654297 -123.37300109863281,-63.215999603271484 -116.76100158691406,-63.03900146484375 C-110.14900207519531,-62.86199951171875 -101.41899871826172,-100.73200225830078 -95.30699920654297,-100.83499908447266 C-89.19499969482422,-100.93800354003906 -103.10299682617188,-62.09600067138672 -91.01200103759766,-61.7239990234375 C-73.80400085449219,-61.84000015258789 -54.39400100708008,-101.04000091552734 -70.86699676513672,-101.0530014038086 C-87.33999633789062,-101.06600189208984 -85.02400207519531,-61.84600067138672 -71.71700286865234,-62.19200134277344 C-58.409000396728516,-62.53799819946289 -42.45500183105469,-99.61000061035156 -42.45500183105469,-99.61000061035156 C-42.45500183105469,-99.61000061035156 -39.62900161743164,-69.63800048828125 -44.31700134277344,-64.81800079345703 C-49.696998596191406,-59.2859992980957 -58.779998779296875,-70.99199676513672 -58.779998779296875,-70.99199676513672"></path>
      </g>
    </g>
    <g transform="matrix(0.9672200083732605,0,0,1,294.5,421)" opacity="1" style="display: block;">
      <g opacity="1" transform="matrix(1,0,0,1,0,0)">
        <path stroke-linecap="butt" stroke-linejoin="miter" fill-opacity="0" stroke-miterlimit="4"
          stroke="rgb(255,255,255)" stroke-opacity="1" stroke-width="2"
          d=" M-22.5,-39 C-22.5,-39 234.5,-39 234.5,-39"></path>
      </g>
    </g>
  </g>
</svg>
